<mxfile host="Electron" agent="Mozilla/5.0 (Macintosh; Intel Mac OS X 10_15_7) AppleWebKit/537.36 (KHTML, like Gecko) draw.io/24.7.8 Chrome/128.0.6613.36 Electron/32.0.1 Safari/537.36" version="24.7.8">
  <diagram id="R2lEEEUBdFMjLlhIrx00" name="Page-1">
    <mxGraphModel dx="964" dy="539" grid="1" gridSize="10" guides="1" tooltips="1" connect="1" arrows="1" fold="1" page="1" pageScale="1" pageWidth="850" pageHeight="1100" math="0" shadow="0" extFonts="Permanent Marker^https://fonts.googleapis.com/css?family=Permanent+Marker">
      <root>
        <mxCell id="0" />
        <mxCell id="1" parent="0" />
        <mxCell id="6J6nZZeQ2vf3VNY7NFm4-80" value="user 用户表" style="swimlane;fontStyle=0;childLayout=stackLayout;horizontal=1;startSize=40;horizontalStack=0;resizeParent=1;resizeParentMax=0;resizeLast=0;collapsible=1;marginBottom=0;align=center;fontSize=14;" parent="1" vertex="1">
          <mxGeometry x="80" y="80" width="200" height="160" as="geometry" />
        </mxCell>
        <mxCell id="6J6nZZeQ2vf3VNY7NFm4-118" value="user_id 用户id" style="rounded=1;arcSize=10;whiteSpace=wrap;html=1;align=center;" parent="6J6nZZeQ2vf3VNY7NFm4-80" vertex="1">
          <mxGeometry y="40" width="200" height="40" as="geometry" />
        </mxCell>
        <mxCell id="6J6nZZeQ2vf3VNY7NFm4-119" value="dept_id 部门id" style="rounded=1;arcSize=10;whiteSpace=wrap;html=1;align=center;" parent="6J6nZZeQ2vf3VNY7NFm4-80" vertex="1">
          <mxGeometry y="80" width="200" height="40" as="geometry" />
        </mxCell>
        <mxCell id="6J6nZZeQ2vf3VNY7NFm4-122" value="use_name 用户名称" style="rounded=1;arcSize=10;whiteSpace=wrap;html=1;align=center;" parent="6J6nZZeQ2vf3VNY7NFm4-80" vertex="1">
          <mxGeometry y="120" width="200" height="40" as="geometry" />
        </mxCell>
        <mxCell id="6J6nZZeQ2vf3VNY7NFm4-123" value="role 角色表" style="swimlane;fontStyle=0;childLayout=stackLayout;horizontal=1;startSize=40;horizontalStack=0;resizeParent=1;resizeParentMax=0;resizeLast=0;collapsible=1;marginBottom=0;align=center;fontSize=14;" parent="1" vertex="1">
          <mxGeometry x="400" y="80" width="200" height="160" as="geometry" />
        </mxCell>
        <mxCell id="6J6nZZeQ2vf3VNY7NFm4-124" value="role_id 角色id" style="rounded=1;arcSize=10;whiteSpace=wrap;html=1;align=center;" parent="6J6nZZeQ2vf3VNY7NFm4-123" vertex="1">
          <mxGeometry y="40" width="200" height="40" as="geometry" />
        </mxCell>
        <mxCell id="6J6nZZeQ2vf3VNY7NFm4-125" value="role_code 角色code" style="rounded=1;arcSize=10;whiteSpace=wrap;html=1;align=center;" parent="6J6nZZeQ2vf3VNY7NFm4-123" vertex="1">
          <mxGeometry y="80" width="200" height="40" as="geometry" />
        </mxCell>
        <mxCell id="6J6nZZeQ2vf3VNY7NFm4-126" value="&lt;span style=&quot;background-color: rgb(204, 0, 102);&quot;&gt;data_scope: 数据权限范围&lt;/span&gt;" style="rounded=1;arcSize=10;whiteSpace=wrap;html=1;align=center;" parent="6J6nZZeQ2vf3VNY7NFm4-123" vertex="1">
          <mxGeometry y="120" width="200" height="40" as="geometry" />
        </mxCell>
        <mxCell id="6J6nZZeQ2vf3VNY7NFm4-127" value="dept 部门表" style="swimlane;fontStyle=0;childLayout=stackLayout;horizontal=1;startSize=40;horizontalStack=0;resizeParent=1;resizeParentMax=0;resizeLast=0;collapsible=1;marginBottom=0;align=center;fontSize=14;" parent="1" vertex="1">
          <mxGeometry x="720" y="40" width="200" height="200" as="geometry" />
        </mxCell>
        <mxCell id="6J6nZZeQ2vf3VNY7NFm4-128" value="dept_id 部门id" style="rounded=1;arcSize=10;whiteSpace=wrap;html=1;align=center;" parent="6J6nZZeQ2vf3VNY7NFm4-127" vertex="1">
          <mxGeometry y="40" width="200" height="40" as="geometry" />
        </mxCell>
        <mxCell id="6J6nZZeQ2vf3VNY7NFm4-129" value="parent_id 父级id" style="rounded=1;arcSize=10;whiteSpace=wrap;html=1;align=center;" parent="6J6nZZeQ2vf3VNY7NFm4-127" vertex="1">
          <mxGeometry y="80" width="200" height="40" as="geometry" />
        </mxCell>
        <mxCell id="6J6nZZeQ2vf3VNY7NFm4-130" value="ancestors 祖级列表" style="rounded=1;arcSize=10;whiteSpace=wrap;html=1;align=center;" parent="6J6nZZeQ2vf3VNY7NFm4-127" vertex="1">
          <mxGeometry y="120" width="200" height="40" as="geometry" />
        </mxCell>
        <mxCell id="6J6nZZeQ2vf3VNY7NFm4-132" value="dept_name 部门名称" style="rounded=1;arcSize=10;whiteSpace=wrap;html=1;align=center;" parent="6J6nZZeQ2vf3VNY7NFm4-127" vertex="1">
          <mxGeometry y="160" width="200" height="40" as="geometry" />
        </mxCell>
        <mxCell id="6J6nZZeQ2vf3VNY7NFm4-133" value="user_role 用户与角色关联表" style="swimlane;fontStyle=0;childLayout=stackLayout;horizontal=1;startSize=40;horizontalStack=0;resizeParent=1;resizeParentMax=0;resizeLast=0;collapsible=1;marginBottom=0;align=center;fontSize=14;" parent="1" vertex="1">
          <mxGeometry x="200" y="320" width="240" height="120" as="geometry" />
        </mxCell>
        <mxCell id="6J6nZZeQ2vf3VNY7NFm4-134" value="user_id 用户id" style="rounded=1;arcSize=0;whiteSpace=wrap;html=1;align=center;" parent="6J6nZZeQ2vf3VNY7NFm4-133" vertex="1">
          <mxGeometry y="40" width="240" height="40" as="geometry" />
        </mxCell>
        <mxCell id="6J6nZZeQ2vf3VNY7NFm4-135" value="role_id 角色id" style="rounded=1;arcSize=10;whiteSpace=wrap;html=1;align=center;" parent="6J6nZZeQ2vf3VNY7NFm4-133" vertex="1">
          <mxGeometry y="80" width="240" height="40" as="geometry" />
        </mxCell>
        <mxCell id="6J6nZZeQ2vf3VNY7NFm4-137" value="role_dept 角色与部门关联表" style="swimlane;fontStyle=0;childLayout=stackLayout;horizontal=1;startSize=40;horizontalStack=0;resizeParent=1;resizeParentMax=0;resizeLast=0;collapsible=1;marginBottom=0;align=center;fontSize=14;" parent="1" vertex="1">
          <mxGeometry x="560" y="320" width="200" height="120" as="geometry" />
        </mxCell>
        <mxCell id="6J6nZZeQ2vf3VNY7NFm4-138" value="role_id 角色id" style="rounded=1;arcSize=10;whiteSpace=wrap;html=1;align=center;" parent="6J6nZZeQ2vf3VNY7NFm4-137" vertex="1">
          <mxGeometry y="40" width="200" height="40" as="geometry" />
        </mxCell>
        <mxCell id="6J6nZZeQ2vf3VNY7NFm4-141" value="dept_id 部门id" style="rounded=1;arcSize=10;whiteSpace=wrap;html=1;align=center;" parent="6J6nZZeQ2vf3VNY7NFm4-137" vertex="1">
          <mxGeometry y="80" width="200" height="40" as="geometry" />
        </mxCell>
        <mxCell id="6J6nZZeQ2vf3VNY7NFm4-144" style="edgeStyle=orthogonalEdgeStyle;rounded=0;orthogonalLoop=1;jettySize=auto;html=1;exitX=1;exitY=0.5;exitDx=0;exitDy=0;entryX=0;entryY=0.5;entryDx=0;entryDy=0;" parent="1" source="6J6nZZeQ2vf3VNY7NFm4-118" target="6J6nZZeQ2vf3VNY7NFm4-134" edge="1">
          <mxGeometry relative="1" as="geometry">
            <Array as="points">
              <mxPoint x="320" y="140" />
              <mxPoint x="320" y="280" />
              <mxPoint x="160" y="280" />
              <mxPoint x="160" y="380" />
            </Array>
          </mxGeometry>
        </mxCell>
        <mxCell id="6J6nZZeQ2vf3VNY7NFm4-146" style="edgeStyle=orthogonalEdgeStyle;rounded=0;orthogonalLoop=1;jettySize=auto;html=1;exitX=0;exitY=0.5;exitDx=0;exitDy=0;entryX=1;entryY=0.5;entryDx=0;entryDy=0;" parent="1" source="6J6nZZeQ2vf3VNY7NFm4-124" target="6J6nZZeQ2vf3VNY7NFm4-135" edge="1">
          <mxGeometry relative="1" as="geometry">
            <Array as="points">
              <mxPoint x="380" y="140" />
              <mxPoint x="380" y="280" />
              <mxPoint x="480" y="280" />
              <mxPoint x="480" y="420" />
            </Array>
          </mxGeometry>
        </mxCell>
        <mxCell id="6J6nZZeQ2vf3VNY7NFm4-148" value="用户分配了那些角色" style="text;html=1;align=center;verticalAlign=middle;resizable=0;points=[];autosize=1;strokeColor=none;fillColor=none;" parent="1" vertex="1">
          <mxGeometry x="250" y="290" width="130" height="30" as="geometry" />
        </mxCell>
        <mxCell id="6J6nZZeQ2vf3VNY7NFm4-149" value="&lt;span style=&quot;background-color: rgb(204, 0, 102);&quot;&gt;角色分配了那些部门权限&lt;/span&gt;" style="text;html=1;align=center;verticalAlign=middle;resizable=0;points=[];autosize=1;strokeColor=none;fillColor=none;" parent="1" vertex="1">
          <mxGeometry x="580" y="290" width="160" height="30" as="geometry" />
        </mxCell>
        <mxCell id="6J6nZZeQ2vf3VNY7NFm4-151" style="edgeStyle=orthogonalEdgeStyle;rounded=0;orthogonalLoop=1;jettySize=auto;html=1;exitX=1;exitY=0.5;exitDx=0;exitDy=0;entryX=0;entryY=0.5;entryDx=0;entryDy=0;" parent="1" source="6J6nZZeQ2vf3VNY7NFm4-124" target="6J6nZZeQ2vf3VNY7NFm4-138" edge="1">
          <mxGeometry relative="1" as="geometry">
            <Array as="points">
              <mxPoint x="640" y="140" />
              <mxPoint x="640" y="280" />
              <mxPoint x="520" y="280" />
              <mxPoint x="520" y="380" />
            </Array>
          </mxGeometry>
        </mxCell>
        <mxCell id="6J6nZZeQ2vf3VNY7NFm4-152" style="edgeStyle=orthogonalEdgeStyle;rounded=0;orthogonalLoop=1;jettySize=auto;html=1;exitX=0;exitY=0.5;exitDx=0;exitDy=0;entryX=1;entryY=0.5;entryDx=0;entryDy=0;" parent="1" source="6J6nZZeQ2vf3VNY7NFm4-128" target="6J6nZZeQ2vf3VNY7NFm4-141" edge="1">
          <mxGeometry relative="1" as="geometry">
            <Array as="points">
              <mxPoint x="680" y="100" />
              <mxPoint x="680" y="280" />
              <mxPoint x="800" y="280" />
              <mxPoint x="800" y="420" />
            </Array>
          </mxGeometry>
        </mxCell>
      </root>
    </mxGraphModel>
  </diagram>
</mxfile>
